<svg width="42" height="42" viewBox="0 0 42 42" fill="none" xmlns="http://www.w3.org/2000/svg">
<g id="Isolation_Mode" clip-path="url(#clip0_371_102)">
<path id="Vector" d="M15.6647 30.7168C15.6647 30.7168 15.5131 30.7168 15.4373 30.6789C15.2289 30.5842 15.0773 30.3757 15.0773 30.1483V26.3585H12.3107C11.2495 26.3585 10.3779 25.4868 10.3779 24.4257V12.3739C10.3779 11.3127 11.2495 10.4411 12.3107 10.4411H29.2514C30.3125 10.4411 31.1842 11.3127 31.1842 12.3739V24.4257C31.1842 25.4868 30.3125 26.3585 29.2514 26.3585H20.2694L16.0627 30.5652C15.949 30.6789 15.7974 30.7358 15.6458 30.7358M12.2917 11.597C11.8749 11.597 11.5148 11.9381 11.5148 12.3739V24.4257C11.5148 24.8615 11.8559 25.2026 12.2917 25.2026H15.6458C15.9679 25.2026 16.2332 25.4679 16.2332 25.79V28.7651L19.6062 25.3921C19.7199 25.2784 19.8715 25.2215 20.0231 25.2215H29.2324C29.6683 25.2215 30.0094 24.8804 30.0094 24.4446V12.3928C30.0094 11.976 29.6683 11.6159 29.2324 11.6159H12.3107L12.2917 11.597Z" fill="#D54141"/>
<path id="Vector_2" d="M28.1334 18.2861L26.0679 16.2206C25.8595 16.0122 25.5373 16.0122 25.3289 16.2206C25.1204 16.4291 25.1204 16.7512 25.3289 16.9596L26.5037 18.1345H24.8172C23.3202 18.1345 22.1075 18.5893 21.3116 19.3662V14.9131L22.4865 16.088C22.5812 16.1827 22.7139 16.2396 22.8655 16.2396C23.0171 16.2396 23.1308 16.1827 23.2444 16.088C23.4529 15.8795 23.4529 15.5574 23.2444 15.3489L21.179 13.2835C20.9705 13.075 20.6484 13.075 20.4399 13.2835L18.3745 15.3489C18.166 15.5574 18.166 15.8795 18.3745 16.088C18.5829 16.2964 18.9051 16.2964 19.1135 16.088L20.2884 14.9131V19.3662C19.4925 18.5703 18.2797 18.1345 16.7827 18.1345H15.0962L16.2711 16.9596C16.4795 16.7512 16.4795 16.4291 16.2711 16.2206C16.0627 16.0122 15.7405 16.0122 15.5321 16.2206L13.4666 18.2861C13.2582 18.4945 13.2582 18.8167 13.4666 19.0251L15.5321 21.0906C15.6268 21.1853 15.7595 21.2422 15.9111 21.2422C16.0627 21.2422 16.1764 21.1853 16.2901 21.0906C16.4985 20.8821 16.4985 20.56 16.2901 20.3516L15.1152 19.1767H16.8017C18.9619 19.1767 20.3073 20.2758 20.3073 22.0191V22.796C20.3073 23.0803 20.5347 23.3266 20.8379 23.3266C21.1411 23.3266 21.3685 23.0992 21.3685 22.796V22.0191C21.3685 20.2568 22.7139 19.1767 24.8741 19.1767H26.5606L25.3857 20.3516C25.1773 20.56 25.1773 20.8821 25.3857 21.0906C25.4805 21.1853 25.6131 21.2422 25.7647 21.2422C25.9163 21.2422 26.03 21.1853 26.1437 21.0906L28.2092 19.0251C28.4176 18.8167 28.4176 18.4945 28.2092 18.2861" fill="#D54141"/>
<path id="Vector_3" d="M20.8 1.17486C25.9732 1.17486 30.8431 3.18348 34.5003 6.85965C38.1576 10.5169 40.1851 15.3868 40.1851 20.5789C40.1851 25.7711 38.1765 30.6221 34.5003 34.2982C30.8431 37.9555 25.9732 39.983 20.8 39.983C15.6268 39.983 10.7569 37.9744 7.08069 34.2982C3.42347 30.641 1.3959 25.7711 1.3959 20.5789C1.3959 15.3868 3.42347 10.5169 7.09964 6.85965C10.7569 3.20243 15.6268 1.17486 20.8189 1.17486M20.8189 0C9.44935 0 0.23999 9.20936 0.23999 20.56C0.23999 31.9106 9.44936 41.12 20.8 41.12C32.1506 41.12 41.36 31.9106 41.36 20.56C41.36 9.20936 32.1696 0 20.8 0" fill="#D54141"/>
</g>
<defs>
<clipPath id="clip0_371_102">
<rect width="41.12" height="41.12" fill="white" transform="translate(0.23999)"/>
</clipPath>
</defs>
</svg>
