<svg width="42" height="42" viewBox="0 0 42 42" fill="none" xmlns="http://www.w3.org/2000/svg">
<g id="Isolation_Mode" clip-path="url(#clip0_371_58)">
<path id="Vector" d="M20.5537 26.3774L19.284 24.9941L20.5726 23.554C20.781 23.3266 20.7621 22.9666 20.5158 22.7771C20.2884 22.5686 19.9283 22.5876 19.7388 22.8339L18.2229 24.5583V23.2129C18.2229 22.9097 17.9765 22.6634 17.6734 22.6634C17.3702 22.6634 17.1238 22.9097 17.1238 23.2129V26.7943C17.1238 27.0975 17.3702 27.3438 17.6734 27.3438C17.9765 27.3438 18.2229 27.0975 18.2229 26.7943V25.5058L19.7578 27.1733C19.8715 27.287 20.0231 27.3438 20.1747 27.3438C20.3073 27.3438 20.44 27.3059 20.5537 27.1923C20.781 26.9838 20.8 26.6427 20.5915 26.4153" fill="#D54141"/>
<path id="Vector_2" d="M22.1643 27.3249C21.8611 27.3249 21.6148 27.0786 21.6148 26.7754V24.4825C21.6148 24.1793 21.8611 23.933 22.1643 23.933H23.5666C23.8698 23.933 24.1161 24.1793 24.1161 24.4825C24.1161 24.7857 23.8698 25.032 23.5666 25.032H22.7139V26.7754C22.7139 27.0786 22.4675 27.3249 22.1643 27.3249Z" fill="#D54141"/>
<path id="Vector_3" d="M24.8551 26.7375C24.8551 27.0596 24.5899 27.3249 24.2677 27.3249C23.9456 27.3249 23.6803 27.0596 23.6803 26.7375C23.6803 26.4153 23.9456 26.15 24.2677 26.15C24.5899 26.15 24.8551 26.4153 24.8551 26.7375Z" fill="#D54141"/>
<path id="Vector_4" d="M30.8052 24.2172L23.2065 15.1974L26.03 10.3084C26.1437 10.1 26.1247 9.8347 25.9731 9.64521C25.8216 9.45571 25.5752 9.37991 25.3478 9.45571L20.7621 10.9148L16.2522 9.45571C16.0248 9.37991 15.7784 9.45571 15.6268 9.64521C15.4752 9.8347 15.4563 10.081 15.57 10.2895L18.2987 15.1974L10.7379 24.2362C9.582 25.6005 9.3546 27.4576 10.0936 29.0872C10.8327 30.7168 12.4244 31.7211 14.2246 31.7211H27.3375C29.1187 31.7211 30.7105 30.7168 31.4684 29.0872C32.2264 27.4576 31.9801 25.6005 30.8242 24.2362M20.6294 12.0897C20.6484 12.0897 20.6673 12.0897 20.6863 12.0897C20.6863 12.0897 20.7242 12.0897 20.7431 12.0897C20.7431 12.0897 20.781 12.0897 20.8 12.0897C20.8189 12.0897 20.8379 12.0897 20.8568 12.0897H20.8947C20.9137 12.0897 20.9516 12.0897 20.9705 12.0897L24.2867 11.0285L22.1833 14.6857H19.3598L17.3323 11.0285L20.6105 12.0897H20.6294ZM30.4262 28.5945C29.8578 29.8073 28.6829 30.5463 27.3564 30.5463H14.2435C12.9171 30.5463 11.7422 29.7883 11.1737 28.5945C10.6053 27.3818 10.7948 25.9985 11.6475 24.9941L19.303 15.8606H22.2591L29.9336 24.9941C30.7863 26.0174 30.9758 27.4007 30.4073 28.5945" fill="#D54141"/>
<path id="Vector_5" d="M20.8 1.17486C25.9732 1.17486 30.8431 3.18348 34.5003 6.85965C38.1576 10.5169 40.1851 15.3868 40.1851 20.5789C40.1851 25.7711 38.1765 30.6221 34.5003 34.2982C30.8431 37.9555 25.9732 39.983 20.8 39.983C15.6268 39.983 10.7569 37.9744 7.08069 34.2982C3.42347 30.641 1.3959 25.7711 1.3959 20.5789C1.3959 15.3868 3.42347 10.5169 7.09964 6.85965C10.7569 3.20243 15.6268 1.17486 20.8189 1.17486M20.8189 0C9.44935 0 0.23999 9.20936 0.23999 20.56C0.23999 31.9106 9.44936 41.12 20.8 41.12C32.1506 41.12 41.36 31.9106 41.36 20.56C41.36 9.20936 32.1696 0 20.8 0" fill="#D54141"/>
</g>
<defs>
<clipPath id="clip0_371_58">
<rect width="41.12" height="41.12" fill="white" transform="translate(0.23999)"/>
</clipPath>
</defs>
</svg>
