<svg width="42" height="42" viewBox="0 0 42 42" fill="none" xmlns="http://www.w3.org/2000/svg">
<g id="Isolation_Mode" clip-path="url(#clip0_371_250)">
<path id="Vector" d="M20.68 1.17486C25.8532 1.17486 30.7231 3.18348 34.3803 6.85965C38.0376 10.5169 40.0651 15.3868 40.0651 20.56C40.0651 25.7332 38.0565 30.6031 34.3803 34.2793C30.7231 37.9365 25.8532 39.9641 20.68 39.9641C15.5068 39.9641 10.6369 37.9555 6.96069 34.2793C3.30348 30.6221 1.2759 25.7521 1.2759 20.56C1.2759 15.3679 3.30348 10.5169 6.97964 6.85965C10.6369 3.20243 15.5068 1.17486 20.6989 1.17486M20.6989 0C9.32936 0 0.119995 9.20936 0.119995 20.56C0.119995 31.9106 9.32936 41.12 20.68 41.12C32.0306 41.12 41.24 31.9106 41.24 20.56C41.24 9.20936 32.0496 0 20.68 0" fill="#D54141"/>
<path id="Vector_2" d="M27.8997 30.6221H13.7446C12.3802 30.6221 11.2622 29.5041 11.2622 28.1397V13.9846C11.2622 12.6202 12.3802 11.5022 13.7446 11.5022H25.2468C25.6068 11.5022 25.8911 11.7865 25.8911 12.1465C25.8911 12.5065 25.6068 12.7908 25.2468 12.7908H13.7446C13.0813 12.7908 12.5507 13.3214 12.5507 13.9846V28.1397C12.5507 28.8029 13.0813 29.3335 13.7446 29.3335H27.8997C28.5629 29.3335 29.0935 28.8029 29.0935 28.1397V16.4669C29.0935 16.1069 29.3777 15.8227 29.7378 15.8227C30.0978 15.8227 30.382 16.1069 30.382 16.4669V28.1397C30.382 29.5041 29.264 30.6221 27.8997 30.6221Z" fill="#D54141"/>
<path id="Vector_3" d="M15.5068 20.0294C16.3027 20.4084 16.9659 20.9769 17.5155 21.6401C17.5155 21.6212 17.4776 21.6022 17.4586 21.5833C18.3113 22.6444 18.8609 23.914 19.2967 25.1836C19.3346 25.2973 19.543 25.2973 19.6188 25.3163C19.8083 25.3163 19.9978 25.2973 20.1684 25.2405C20.3768 25.2026 20.5663 25.1457 20.7558 25.051C20.8884 24.9752 21.059 24.8994 21.1348 24.7668C22.2528 22.7581 23.4466 20.8253 24.7351 18.9304C26.0237 17.0544 27.4259 15.2921 28.9419 13.6246C29.8136 12.6771 30.7042 11.7675 31.6516 10.9148C31.9548 10.6306 31.3674 10.6116 31.2158 10.6306C30.9695 10.6495 30.7231 10.7064 30.4768 10.8011C30.2873 10.8769 30.0978 10.9527 29.9462 11.0854C28.2408 12.6581 26.668 14.3636 25.2089 16.1638C23.7687 17.945 22.4423 19.821 21.2295 21.7728C20.5473 22.8718 19.8841 23.9898 19.2588 25.1078C19.8841 24.9752 20.5094 24.8236 21.1158 24.691C20.3768 22.6065 19.3156 20.3895 17.2123 19.4041C17.0607 19.3283 16.8901 19.3472 16.7385 19.3472C16.4922 19.3662 16.2269 19.423 15.9995 19.5178C15.81 19.5936 15.6205 19.6504 15.4689 19.802C15.4121 19.8589 15.3173 19.9915 15.431 20.0484" fill="#D54141"/>
</g>
<defs>
<clipPath id="clip0_371_250">
<rect width="41.12" height="41.12" fill="white" transform="translate(0.119995)"/>
</clipPath>
</defs>
</svg>
