<svg width="42" height="42" viewBox="0 0 42 42" fill="none" xmlns="http://www.w3.org/2000/svg">
<g id="Isolation_Mode" clip-path="url(#clip0_371_40)">
<path id="Vector" d="M31.4621 14.3825H23.3518C23.1244 14.3825 22.9159 14.4204 22.7264 14.4962V12.2981C22.7264 11.218 21.8548 10.3463 20.7747 10.3463H11.2432C10.163 10.3463 9.29138 11.218 9.29138 12.2981V23.2319C9.29138 24.312 10.163 25.1836 11.2432 25.1836H12.9486V28.1208C12.9486 28.3482 13.0812 28.5566 13.2897 28.6324C13.3655 28.6514 13.4413 28.6703 13.4981 28.6703C13.6497 28.6703 13.7824 28.6135 13.8961 28.4998L17.2311 25.1647H20.7747C21.0779 25.1647 21.3621 25.0889 21.6274 24.9752V25.5247C21.6274 26.4911 22.4043 27.2681 23.3707 27.2681H26.0236L29.3587 30.6031C29.4724 30.7168 29.605 30.7547 29.7566 30.7547C29.8324 30.7547 29.9082 30.7547 29.9651 30.7168C30.1735 30.641 30.3062 30.4326 30.3062 30.2052V27.2681H31.4621C32.4285 27.2681 33.2054 26.4911 33.2054 25.5247V16.088C33.2054 15.1216 32.4285 14.3446 31.4621 14.3446M20.7747 24.0467H17.0037C16.8522 24.0467 16.7195 24.1035 16.6058 24.1983L14.0477 26.7564V24.5962C14.0477 24.293 13.8013 24.0467 13.4981 24.0467H11.2432C10.7694 24.0467 10.3904 23.6677 10.3904 23.194V12.2602C10.3904 11.7865 10.7694 11.4075 11.2432 11.4075H20.7747C21.2484 11.4075 21.6274 11.7865 21.6274 12.2602V23.194C21.6274 23.6677 21.2484 24.0467 20.7747 24.0467ZM32.0874 25.5247C32.0874 25.8658 31.8032 26.1501 31.4621 26.1501H29.7377C29.4345 26.1501 29.1882 26.3964 29.1882 26.6996V28.8598L26.63 26.3016C26.5353 26.2069 26.3837 26.1311 26.2321 26.1311H23.3518C23.0107 26.1311 22.7264 25.8469 22.7264 25.5058V16.069C22.7264 15.7279 23.0107 15.4437 23.3518 15.4437H31.4621C31.8032 15.4437 32.0874 15.7279 32.0874 16.069V25.5058V25.5247Z" fill="#D54141"/>
<path id="Vector_2" d="M28.0133 23.8761C28.0133 24.1983 27.748 24.4636 27.4259 24.4636C27.1037 24.4636 26.8384 24.1983 26.8384 23.8761C26.8384 23.554 27.1037 23.2887 27.4259 23.2887C27.748 23.2887 28.0133 23.554 28.0133 23.8761Z" fill="#D54141"/>
<path id="Vector_3" d="M27.4259 22.4928C27.1227 22.4928 26.8763 22.2465 26.8763 21.9433V17.8313C26.8763 17.5281 27.1227 17.2818 27.4259 17.2818C27.7291 17.2818 27.9754 17.5281 27.9754 17.8313V21.9433C27.9754 22.2465 27.7291 22.4928 27.4259 22.4928Z" fill="#D54141"/>
<path id="Vector_4" d="M16.6058 21.9433C16.6058 22.2654 16.3405 22.5307 16.0184 22.5307C15.6963 22.5307 15.431 22.2654 15.431 21.9433C15.431 21.6212 15.6963 21.3559 16.0184 21.3559C16.3405 21.3559 16.6058 21.6212 16.6058 21.9433Z" fill="#D54141"/>
<path id="Vector_5" d="M16.0184 20.5032C15.7152 20.5032 15.4689 20.2568 15.4689 19.9536V18.9872C15.4689 18.3429 15.9047 17.7745 16.53 17.585C17.3448 17.3386 17.8754 16.5996 17.8186 15.7469C17.7807 14.8942 16.9658 14.0793 16.1131 14.0414C15.6015 14.0225 15.1278 14.193 14.7677 14.5341C14.4077 14.8752 14.1992 15.3489 14.1992 15.8416C14.1992 16.1448 13.9529 16.3912 13.6497 16.3912C13.3465 16.3912 13.1002 16.1448 13.1002 15.8416C13.1002 15.0458 13.4223 14.2688 14.0098 13.7193C14.5972 13.1698 15.3741 12.8855 16.17 12.9234C17.5912 12.9992 18.8608 14.2688 18.9366 15.69C19.0124 17.0544 18.1407 18.2671 16.8522 18.6461C16.6816 18.703 16.5869 18.8356 16.5869 18.9872V19.9536C16.5869 20.2568 16.3405 20.5032 16.0373 20.5032" fill="#D54141"/>
<path id="Vector_6" d="M21.4 1.17486C26.5732 1.17486 31.4431 3.18348 35.1003 6.85965C38.7576 10.5169 40.7851 15.3868 40.7851 20.5789C40.7851 25.7711 38.7765 30.6221 35.1003 34.2982C31.4431 37.9555 26.5732 39.983 21.4 39.983C16.2268 39.983 11.3569 37.9744 7.6807 34.2982C4.02348 30.641 1.9959 25.7711 1.9959 20.5789C1.9959 15.3868 4.02348 10.5169 7.69965 6.85965C11.3569 3.20243 16.2268 1.17486 21.4189 1.17486M21.4189 0C10.0494 0 0.839996 9.20936 0.839996 20.56C0.839996 31.9106 10.0494 41.12 21.4 41.12C32.7506 41.12 41.96 31.9106 41.96 20.56C41.96 9.20936 32.7696 0 21.4 0" fill="#D54141"/>
</g>
<defs>
<clipPath id="clip0_371_40">
<rect width="41.12" height="41.12" fill="white" transform="translate(0.839996)"/>
</clipPath>
</defs>
</svg>
