<svg width="42" height="42" viewBox="0 0 42 42" fill="none" xmlns="http://www.w3.org/2000/svg">
<g id="Isolation_Mode" clip-path="url(#clip0_371_47)">
<path id="Vector" d="M16.9028 13.9846C16.9028 14.3825 17.2249 14.6857 17.6039 14.6857C17.9829 14.6857 18.305 14.3636 18.305 13.9846C18.305 13.6056 17.9829 13.2835 17.6039 13.2835C17.2249 13.2835 16.9028 13.6056 16.9028 13.9846Z" fill="#D54141"/>
<path id="Vector_2" d="M17.6039 11.9002C16.2964 11.9002 15.0836 12.6013 14.4394 13.7193C14.3446 13.8709 14.3446 14.0793 14.4394 14.2309C15.0836 15.3679 16.2964 16.0501 17.6039 16.0501C18.9114 16.0501 20.1052 15.3489 20.7684 14.2309C20.8632 14.0793 20.8632 13.8709 20.7684 13.7193C20.1242 12.5823 18.9114 11.9002 17.6039 11.9002ZM17.6039 15.0268C16.7891 15.0268 16.0122 14.6289 15.5195 13.9846C16.0122 13.3403 16.7701 12.9424 17.6039 12.9424C18.4377 12.9424 19.1956 13.3403 19.6883 13.9846C19.1956 14.6289 18.4377 15.0268 17.6039 15.0268Z" fill="#D54141"/>
<path id="Vector_3" d="M27.0596 23.3835C26.7375 23.3835 26.4722 23.6487 26.4722 23.9709V30.2052C26.4722 30.5273 26.7375 30.7926 27.0596 30.7926C27.3817 30.7926 27.647 30.5273 27.647 30.2052V23.9709C27.647 23.6487 27.3817 23.3835 27.0596 23.3835Z" fill="#D54141"/>
<path id="Vector_4" d="M28.5566 19.0819C27.4196 17.8881 26.0174 17.2628 24.672 16.7512C24.5962 16.7322 24.5772 16.6754 24.5772 16.6375C24.5772 16.5996 24.5772 16.5238 24.6341 16.4669C25.5437 15.5953 26.0742 14.3067 26.0742 12.9234C26.0742 10.4979 24.4257 8.73563 22.1707 8.73563C21.4127 8.73563 20.6926 8.94407 20.0863 9.342C19.6883 9.13356 19.2525 8.96302 18.7977 8.86827C17.4144 8.56508 16.0122 8.79247 14.8184 9.55045C13.6246 10.3084 12.7908 11.4643 12.4876 12.8476C12.2223 14.0225 12.3549 15.2352 12.8855 16.3153L10.5169 17.8123C10.3084 17.585 9.96733 17.5092 9.6831 17.6797L7.99661 18.7409C7.73132 18.9114 7.63657 19.2525 7.75027 19.5367L6.63226 20.2568C6.36697 20.4273 6.27222 20.7874 6.44276 21.0527C6.55646 21.2232 6.74595 21.318 6.93545 21.318C7.04914 21.318 7.14389 21.2801 7.23863 21.2232L8.31874 20.541L11.1422 25.5816C11.6538 26.5101 12.6392 27.0786 13.7003 27.0786C14.4583 27.0786 15.1594 26.7943 15.709 26.2827L16.808 25.2594V30.2241C16.808 30.5273 17.0544 30.7737 17.3576 30.7737C17.6608 30.7737 17.9071 30.5273 17.9071 30.2241V23.9898C17.9071 23.7814 17.7744 23.5729 17.566 23.4971C17.3576 23.4024 17.1302 23.4592 16.9786 23.6108L14.97 25.5058C14.6289 25.8279 14.1741 25.9984 13.7193 25.9984C13.0561 25.9984 12.4497 25.6384 12.1086 25.051L9.26621 19.9536L11.3506 18.6461L11.6159 19.2146L11.218 19.9726C11.1232 20.1431 11.1422 20.3516 11.2559 20.5221L12.9992 23.0613C13.1508 23.2697 13.3972 23.3834 13.6435 23.3834H13.6814C13.9467 23.3834 14.193 23.2318 14.3257 22.9855L14.4394 22.7771C15.5763 20.8253 16.2017 19.7452 16.8649 19.2146C17.1112 19.2525 17.3765 19.2714 17.6229 19.2714C18.6082 19.2714 19.5746 18.9872 20.4274 18.4566C22.8908 16.9028 23.6298 13.6435 22.0759 11.1801C21.8106 10.7632 21.5075 10.4032 21.1474 10.081C21.4696 9.94838 21.8107 9.89153 22.1707 9.89153C23.7814 9.89153 24.9183 11.1422 24.9183 12.9234C24.9183 13.9846 24.5204 14.9699 23.8382 15.6332C23.4971 15.9553 23.3645 16.4101 23.4403 16.8649C23.535 17.3197 23.8382 17.6797 24.2741 17.8502C25.4868 18.305 26.7375 18.8735 27.7228 19.8968C28.8408 21.0716 29.2767 22.3602 29.2767 24.5204V30.2052C29.2767 30.5273 29.542 30.7926 29.8641 30.7926C30.1862 30.7926 30.4515 30.5273 30.4515 30.2052V24.5204C30.4515 22.7202 30.2241 20.8063 28.5756 19.0819M13.6246 22.1138L12.2792 20.181L12.6581 19.4799C12.7339 19.3283 12.7339 19.1577 12.6581 19.0061L12.2413 18.0587L13.4919 17.2628C14.0793 17.9829 14.8184 18.5514 15.69 18.8925C15.1026 19.5746 14.5152 20.5789 13.6246 22.0949M19.821 17.4523C18.8925 18.0397 17.7934 18.2292 16.7133 17.9829C15.6521 17.7365 14.7236 17.0923 14.1551 16.1638C12.9424 14.2499 13.5298 11.7107 15.4437 10.4979C16.1069 10.081 16.8649 9.85363 17.6229 9.85363C17.926 9.85363 18.2292 9.89153 18.5324 9.94838C19.5936 10.1947 20.5031 10.839 21.0906 11.7675C22.3033 13.6814 21.7159 16.2206 19.802 17.4334" fill="#D54141"/>
<path id="Vector_5" d="M20.56 1.17486C25.7332 1.17486 30.6031 3.18348 34.2603 6.85965C37.9176 10.5169 39.9451 15.3868 39.9451 20.5789C39.9451 25.7711 37.9365 30.6221 34.2603 34.2982C30.6031 37.9555 25.7332 39.983 20.56 39.983C15.3868 39.983 10.5169 37.9744 6.8407 34.2982C3.18348 30.641 1.15591 25.7711 1.15591 20.5789C1.15591 15.3868 3.18348 10.5169 6.85965 6.85965C10.5169 3.20243 15.3868 1.17486 20.5789 1.17486M20.5789 0C9.20936 0 0 9.20936 0 20.56C0 31.9106 9.20936 41.12 20.56 41.12C31.9106 41.12 41.12 31.9106 41.12 20.56C41.12 9.20936 31.9296 0 20.56 0" fill="#D54141"/>
</g>
<defs>
<clipPath id="clip0_371_47">
<rect width="41.12" height="41.12" fill="white"/>
</clipPath>
</defs>
</svg>
