<svg width="42" height="42" viewBox="0 0 42 42" fill="none" xmlns="http://www.w3.org/2000/svg">
<g id="Isolation_Mode" clip-path="url(#clip0_371_53)">
<path id="Vector" d="M19.4104 14.6289H12.8539C12.5507 14.6289 12.3044 14.3825 12.3044 14.0793C12.3044 13.7761 12.5507 13.5298 12.8539 13.5298H19.4104C19.7136 13.5298 19.9599 13.7761 19.9599 14.0793C19.9599 14.3825 19.7136 14.6289 19.4104 14.6289Z" fill="#D54141"/>
<path id="Vector_2" d="M18.6335 16.6754H12.8539C12.5507 16.6754 12.3044 16.429 12.3044 16.1259C12.3044 15.8227 12.5507 15.5763 12.8539 15.5763H18.6335C18.9367 15.5763 19.183 15.8227 19.183 16.1259C19.183 16.429 18.9367 16.6754 18.6335 16.6754Z" fill="#D54141"/>
<path id="Vector_3" d="M30.9126 11.0475H10.4474C10.1252 11.0475 9.85994 11.3127 9.85994 11.6349V26.3964C9.85994 26.7185 10.1252 26.9838 10.4474 26.9838H19.6946V29.542C19.6946 29.8452 19.941 30.0915 20.2442 30.0915C20.5473 30.0915 20.7937 29.8452 20.7937 29.542V23.8761C20.7937 23.7056 20.7179 23.554 20.6042 23.4592C20.4716 23.3456 20.32 23.3077 20.1494 23.3266L16.7196 23.8761C16.549 23.8951 16.3785 23.8761 16.2269 23.7435C16.0753 23.6298 15.9995 23.4782 15.9806 23.3077L15.5826 20.0484L16.1322 19.7641L16.6248 22.2654C16.6817 22.5686 16.9659 22.7581 17.2691 22.7013C18.2924 22.5118 18.9746 22.0191 19.6946 21.4885C20.0168 21.2422 20.3768 20.9958 20.7747 20.7495C21.04 20.5979 21.2864 20.5221 21.5138 20.4653C21.7222 20.4084 21.9496 20.3516 22.158 20.2189C22.4612 20.0294 22.6886 19.7262 22.7455 19.3662C22.8023 19.0251 22.7076 18.6651 22.4802 18.3998C22.1391 18.0018 21.9496 17.4523 21.9496 16.8838C21.9496 15.709 22.7834 14.8184 23.8635 14.8184C24.9436 14.8184 25.7774 15.709 25.7774 16.8838C25.7774 17.4334 25.6068 17.945 25.2847 18.3429C25.0573 18.6272 24.9625 18.9872 25.0383 19.3472C25.1141 19.6883 25.3415 19.9915 25.6447 20.1621C26.8764 20.8063 27.6533 22.0759 27.6533 23.4592V29.5041C27.6533 29.8073 27.8997 30.0536 28.2029 30.0536C28.5061 30.0536 28.7524 29.8073 28.7524 29.5041V26.9459H30.9316C31.2537 26.9459 31.519 26.6806 31.519 26.3585V11.597C31.519 11.2748 31.2537 11.0096 30.9316 11.0096M30.3441 25.7711H28.7524V23.4403C28.7524 21.6401 27.7481 19.9915 26.1563 19.1578C26.1563 19.1578 26.1184 19.1578 26.1184 19.1009C26.1184 19.1009 26.1184 19.0441 26.1374 19.0251C26.6111 18.4187 26.8764 17.6608 26.8764 16.8649C26.8764 15.0837 25.55 13.7004 23.8445 13.7004C22.1391 13.7004 20.8126 15.1026 20.8126 16.8649C20.8126 17.6987 21.0969 18.4756 21.6085 19.1009C21.6085 19.1009 21.6275 19.1388 21.6275 19.1578C21.6275 19.1578 21.6275 19.2146 21.5706 19.2336C21.4948 19.2904 21.3622 19.3093 21.1916 19.3662C20.9074 19.442 20.5663 19.5367 20.1684 19.7641C19.7136 20.0294 19.3346 20.3137 19.0125 20.56C18.5008 20.92 18.0839 21.2422 17.5723 21.4317L16.8901 17.9071C16.8333 17.6039 16.549 17.4144 16.2459 17.4713C15.9427 17.5281 15.7532 17.8124 15.81 18.1155L15.9048 18.6082L14.9573 19.082C14.6162 19.2525 14.4078 19.6315 14.4646 20.0105L14.8815 23.4024C14.9384 23.8761 15.1847 24.312 15.5637 24.5962C15.9427 24.8804 16.4164 24.9941 16.8901 24.9183L19.6757 24.4636V25.7521H11.0158V12.1655H30.3252V25.7521L30.3441 25.7711Z" fill="#D54141"/>
<path id="Vector_4" d="M20.68 1.17486C25.8532 1.17486 30.7231 3.18348 34.3803 6.85965C38.0376 10.5169 40.0651 15.3868 40.0651 20.5789C40.0651 25.7711 38.0565 30.6221 34.3803 34.2982C30.7231 37.9555 25.8532 39.983 20.68 39.983C15.5068 39.983 10.6369 37.9744 6.96069 34.2982C3.30348 30.641 1.2759 25.7711 1.2759 20.5789C1.2759 15.3868 3.30348 10.5169 6.97964 6.85965C10.6369 3.20243 15.5068 1.17486 20.6989 1.17486M20.6989 0C9.32936 0 0.119995 9.20936 0.119995 20.56C0.119995 31.9106 9.32936 41.12 20.68 41.12C32.0306 41.12 41.24 31.9106 41.24 20.56C41.24 9.20936 32.0496 0 20.68 0" fill="#D54141"/>
</g>
<defs>
<clipPath id="clip0_371_53">
<rect width="41.12" height="41.12" fill="white" transform="translate(0.119995)"/>
</clipPath>
</defs>
</svg>
