<svg width="42" height="42" viewBox="0 0 42 42" fill="none" xmlns="http://www.w3.org/2000/svg">
<g id="Isolation_Mode" clip-path="url(#clip0_371_64)">
<path id="Vector" d="M32.119 30.2999H31.0768L31.8348 24.0656C31.8727 23.7245 31.7779 23.3835 31.5506 23.1371C31.3421 22.8908 31.02 22.7581 30.6789 22.7581H29.0492C28.8219 21.299 28.2723 20.181 27.3059 19.1578C26.169 17.9639 24.7667 17.3386 23.4213 16.827C23.3455 16.808 23.3266 16.7512 23.3266 16.7133C23.3266 16.6754 23.3266 16.6185 23.3834 16.5427C24.293 15.6711 24.8235 14.3825 24.8235 12.9992C24.8235 10.5737 23.175 8.81143 20.92 8.81143C18.665 8.81143 17.0164 10.5737 17.0164 12.9992C17.0164 14.3825 17.547 15.6711 18.4566 16.5427C18.5134 16.5996 18.5134 16.6754 18.5134 16.7133C18.5134 16.7512 18.4755 16.808 18.4187 16.827C17.0733 17.3386 15.671 17.9639 14.5341 19.1578C12.8855 20.8821 12.6581 22.796 12.6581 24.5962V28.3292C11.9191 28.4998 11.1422 29.0114 11.1043 30.3189H9.6641C9.34197 30.3189 9.07668 30.5842 9.07668 30.9063C9.07668 31.2285 9.34197 31.4938 9.6641 31.4938H32.1569C32.4791 31.4938 32.7444 31.2285 32.7444 30.9063C32.7444 30.5842 32.4791 30.3189 32.1569 30.3189M30.7168 23.933L29.9399 30.3189H21.1284L21.8864 24.0846C21.8864 24.0846 21.9812 23.933 22.038 23.933H30.6978M15.3678 19.9726C16.3532 18.9493 17.6039 18.3808 18.8166 17.926C19.2525 17.7555 19.5556 17.3955 19.6504 16.9407C19.7451 16.4859 19.5935 16.0311 19.2714 15.709C18.5892 15.0458 18.1913 14.0604 18.1913 12.9992C18.1913 11.218 19.3093 9.96734 20.9389 9.96734C22.5686 9.96734 23.6866 11.218 23.6866 12.9992C23.6866 14.0604 23.2887 15.0458 22.6065 15.709C22.2654 16.0311 22.1327 16.4859 22.2085 16.9407C22.3033 17.3955 22.6065 17.7555 23.0423 17.926C24.2551 18.3808 25.5057 18.9493 26.4911 19.9726C27.268 20.7874 27.7038 21.6401 27.8933 22.7771H22.038C21.3748 22.7771 20.8063 23.2887 20.7115 23.9519L20.0294 29.4662H18.4376C18.1155 29.4662 17.8502 29.7315 17.8502 30.0536C17.8502 30.1484 17.8692 30.2431 17.926 30.3189H16.4101V24.0277C16.4101 23.7435 16.1827 23.4971 15.8795 23.4971C15.5763 23.4971 15.3489 23.7245 15.3489 24.0277V29.0493C14.951 28.4998 14.3256 28.3103 13.7761 28.2534V24.5962C13.7761 22.436 14.2119 21.1285 15.3299 19.9726M13.3971 29.2956C14.2877 29.2956 14.6478 29.5799 14.6857 30.3189H12.1275C12.1654 29.5799 12.5254 29.2956 13.4161 29.2956" fill="#D54141"/>
<path id="Vector_2" d="M20.92 1.17486C26.0932 1.17486 30.9631 3.18348 34.6203 6.85965C38.2776 10.5169 40.3051 15.3868 40.3051 20.5789C40.3051 25.7711 38.2965 30.6221 34.6203 34.2982C30.9631 37.9555 26.0932 39.983 20.92 39.983C15.7468 39.983 10.8769 37.9744 7.2007 34.2982C3.54348 30.641 1.51591 25.7711 1.51591 20.5789C1.51591 15.3868 3.54348 10.5169 7.21965 6.85965C10.8769 3.20243 15.7468 1.17486 20.9389 1.17486M20.9389 0C9.56936 0 0.360001 9.20936 0.360001 20.56C0.360001 31.9106 9.56937 41.12 20.92 41.12C32.2706 41.12 41.48 31.9106 41.48 20.56C41.48 9.20936 32.2896 0 20.92 0" fill="#D54141"/>
</g>
<defs>
<clipPath id="clip0_371_64">
<rect width="41.12" height="41.12" fill="white" transform="translate(0.360001)"/>
</clipPath>
</defs>
</svg>
