<svg width="42" height="42" viewBox="0 0 42 42" fill="none" xmlns="http://www.w3.org/2000/svg">
<g id="Isolation_Mode" clip-path="url(#clip0_371_76)">
<path id="Vector" d="M12.9171 22.057C12.1022 22.057 11.4201 21.3938 11.4201 20.56C11.4201 19.7262 12.0833 19.063 12.9171 19.063C13.7508 19.063 14.3951 19.7262 14.3951 20.56C14.3951 21.3938 13.7319 22.057 12.9171 22.057ZM12.9171 20.0673C12.6518 20.0673 12.4244 20.2947 12.4244 20.56C12.4244 20.8253 12.6518 21.0527 12.9171 21.0527C13.1824 21.0527 13.4098 20.8253 13.4098 20.56C13.4098 20.2947 13.1824 20.0673 12.9171 20.0673Z" fill="#D54141"/>
<path id="Vector_2" d="M26.6363 24.7099C25.5373 24.7099 24.6656 23.8193 24.6656 22.7392C24.6656 21.659 25.5562 20.7684 26.6363 20.7684C27.7165 20.7684 28.6071 21.659 28.6071 22.7392C28.6071 23.8193 27.7165 24.7099 26.6363 24.7099ZM26.6363 21.8106C26.1247 21.8106 25.7078 22.2275 25.7078 22.7392C25.7078 23.2508 26.1247 23.6677 26.6363 23.6677C27.148 23.6677 27.5649 23.2508 27.5649 22.7392C27.5649 22.2275 27.148 21.8106 26.6363 21.8106Z" fill="#D54141"/>
<path id="Vector_3" d="M22.278 20.3705C21.1789 20.3705 20.3073 19.4799 20.3073 18.3998C20.3073 17.3197 21.1979 16.429 22.278 16.429C23.3581 16.429 24.2487 17.3197 24.2487 18.3998C24.2487 19.4799 23.3581 20.3705 22.278 20.3705ZM22.278 17.4713C21.7664 17.4713 21.3495 17.8881 21.3495 18.3998C21.3495 18.9114 21.7664 19.3283 22.278 19.3283C22.7896 19.3283 23.2065 18.9114 23.2065 18.3998C23.2065 17.8881 22.7896 17.4713 22.278 17.4713Z" fill="#D54141"/>
<path id="Vector_4" d="M21.2926 24.2362C21.16 24.2362 21.0274 24.1793 20.9137 24.0846C20.7052 23.8761 20.7052 23.554 20.9137 23.3455L27.2238 17.0354C27.4322 16.827 27.7544 16.827 27.9628 17.0354C28.1712 17.2439 28.1712 17.566 27.9628 17.7744L21.6527 24.0846C21.5579 24.1793 21.4253 24.2362 21.2737 24.2362" fill="#D54141"/>
<path id="Vector_5" d="M32.5106 27.8176H13.6182C13.4666 27.8176 13.315 27.7607 13.2013 27.647L9.20298 23.6866C9.08929 23.5729 9.03244 23.4213 9.03244 23.2698V17.8881C9.03244 17.7366 9.08929 17.585 9.20298 17.4713L13.2013 13.4919C13.315 13.3782 13.4666 13.3214 13.6182 13.3214H32.5106C32.8328 13.3214 33.0981 13.5867 33.0981 13.9088V27.2302C33.0981 27.5523 32.8328 27.8176 32.5106 27.8176ZM13.8645 26.6427H31.9232V14.4962H13.8456L10.1883 18.1345V23.0234L13.8456 26.6427H13.8645Z" fill="#D54141"/>
<path id="Vector_6" d="M21.16 1.17486C26.3332 1.17486 31.2031 3.18348 34.8604 6.85965C38.5176 10.5169 40.5451 15.3868 40.5451 20.5789C40.5451 25.7711 38.5365 30.6221 34.8604 34.2982C31.2031 37.9555 26.3332 39.983 21.16 39.983C15.9868 39.983 11.1169 37.9744 7.44071 34.2982C3.78349 30.641 1.75591 25.7711 1.75591 20.5789C1.75591 15.3868 3.78349 10.5169 7.45966 6.85965C11.1169 3.20243 15.9868 1.17486 21.179 1.17486M21.179 0C9.80937 0 0.600006 9.20936 0.600006 20.56C0.600006 31.9106 9.80937 41.12 21.16 41.12C32.5106 41.12 41.72 31.9106 41.72 20.56C41.72 9.20936 32.5296 0 21.16 0" fill="#D54141"/>
</g>
<defs>
<clipPath id="clip0_371_76">
<rect width="41.12" height="41.12" fill="white" transform="translate(0.600006)"/>
</clipPath>
</defs>
</svg>
