<svg width="42" height="42" viewBox="0 0 42 42" fill="none" xmlns="http://www.w3.org/2000/svg">
<g id="Isolation_Mode" clip-path="url(#clip0_371_24)">
<path id="Vector" d="M26.289 29.2009H12.7781C12.456 29.2009 12.1907 28.9356 12.1907 28.6135V9.85363C12.1907 9.5315 12.456 9.2662 12.7781 9.2662H26.289C26.6111 9.2662 26.8764 9.5315 26.8764 9.85363V28.6135C26.8764 28.9356 26.6111 29.2009 26.289 29.2009ZM13.3655 28.045H25.7015V10.4411H13.3655V28.045Z" fill="#D54141"/>
<path id="Vector_2" d="M29.1503 31.8538H16.1511C15.8289 31.8538 15.5636 31.5885 15.5636 31.2664C15.5636 30.9442 15.8289 30.6789 16.1511 30.6789H28.5818V13.2077C28.5818 12.8855 28.8471 12.6202 29.1692 12.6202C29.4914 12.6202 29.7567 12.8855 29.7567 13.2077V31.2664C29.7567 31.5885 29.4914 31.8538 29.1692 31.8538" fill="#D54141"/>
<path id="Vector_3" d="M17.8565 13.5677H17.6102C17.7049 13.454 17.7618 13.3024 17.7618 13.1508C17.7618 12.7908 17.4586 12.4876 17.0985 12.4876C16.7385 12.4876 16.4353 12.7908 16.4353 13.1508C16.4353 13.3214 16.4922 13.454 16.5869 13.5677H16.3406C16.0184 13.5677 15.7531 13.833 15.7531 14.1551C15.7531 14.4773 16.0184 14.7426 16.3406 14.7426H17.8565C18.1787 14.7426 18.4439 14.4773 18.4439 14.1551C18.4439 13.833 18.1787 13.5677 17.8565 13.5677Z" fill="#D54141"/>
<path id="Vector_4" d="M22.897 18.4756H16.1132C15.791 18.4756 15.5257 18.2103 15.5257 17.8881C15.5257 17.566 15.791 17.3007 16.1132 17.3007H22.897C23.2192 17.3007 23.4845 17.566 23.4845 17.8881C23.4845 18.2103 23.2192 18.4756 22.897 18.4756Z" fill="#D54141"/>
<path id="Vector_5" d="M22.897 21.5075H16.1132C15.791 21.5075 15.5257 21.2422 15.5257 20.92C15.5257 20.5979 15.791 20.3326 16.1132 20.3326H22.897C23.2192 20.3326 23.4845 20.5979 23.4845 20.92C23.4845 21.2422 23.2192 21.5075 22.897 21.5075Z" fill="#D54141"/>
<path id="Vector_6" d="M22.897 24.5394H16.1132C15.791 24.5394 15.5257 24.2741 15.5257 23.9519C15.5257 23.6298 15.791 23.3645 16.1132 23.3645H22.897C23.2192 23.3645 23.4845 23.6298 23.4845 23.9519C23.4845 24.2741 23.2192 24.5394 22.897 24.5394Z" fill="#D54141"/>
<path id="Vector_7" d="M21.04 1.17486C26.2132 1.17486 31.0831 3.18348 34.7403 6.85965C38.3976 10.5169 40.4251 15.3868 40.4251 20.5789C40.4251 25.7711 38.4165 30.6221 34.7403 34.2982C31.0831 37.9555 26.2132 39.983 21.04 39.983C15.8668 39.983 10.9969 37.9744 7.3207 34.2982C3.66348 30.641 1.6359 25.7711 1.6359 20.5789C1.6359 15.3868 3.66348 10.5169 7.33964 6.85965C10.9969 3.20243 15.8668 1.17486 21.0589 1.17486M21.0589 0C9.68936 0 0.479996 9.20936 0.479996 20.56C0.479996 31.9106 9.68936 41.12 21.04 41.12C32.3906 41.12 41.6 31.9106 41.6 20.56C41.6 9.20936 32.4096 0 21.04 0" fill="#D54141"/>
</g>
<defs>
<clipPath id="clip0_371_24">
<rect width="41.12" height="41.12" fill="white" transform="translate(0.479996)"/>
</clipPath>
</defs>
</svg>
