<?xml version="1.0" encoding="UTF-8"?><svg id="Layer_1" xmlns="http://www.w3.org/2000/svg" width="992" height="520.24" xmlns:xlink="http://www.w3.org/1999/xlink" viewBox="0 0 992 520.24"><defs><clipPath id="clippath"><rect width="992" height="520.2" style="fill:none; stroke-width:0px;"/></clipPath><mask id="mask" x="0" y="0" width="992" height="520.24" maskUnits="userSpaceOnUse"><g id="mask0_21_5123"><path d="m992,0H0v520.2h992V0Z" style="fill:#fff; stroke-width:0px;"/></g></mask></defs><g style="clip-path:url(#clippath);"><g style="mask:url(#mask);"><path d="m943.14,3.96h-65.17c-140.92,0-233.54,105.57-318.09,212.64-83.81,106.07-147.49,206.24-273.15,206.24h-.5c-43.59,0-79.44-16.89-110.3-47.66-56.82-56.63-56.82-173.55,0-230.12,30.82-30.72,66.71-47.66,110.3-47.66s84.61,16.94,115.47,47.66c19.09,19.02,50.01,19.02,69.1,0,19.09-19.02,19.09-49.84,0-68.86C421.54,27.05,356.02,0,286.28,0S151.07,27.05,101.75,76.2C0,177.61,0,342.63,101.75,444.05c49.31,49.15,114.83,76.2,184.52,76.2h.65c172.94-.1,254.51-129.35,344.59-243.4,76.55-96.91,147.78-175.48,241.29-175.48h21.42v205.65h-151.66c-25.65,0-46.43,20.71-46.43,46.27s20.78,46.27,46.43,46.27h151.66v70.9c0,26.9,21.87,48.7,48.86,48.7s48.87-21.8,48.87-48.7V52.66c0-26.9-21.87-48.7-48.87-48.7" style="fill:#0094d6; stroke-width:0px;"/></g></g></svg>