<?xml version="1.0" encoding="UTF-8"?><svg id="Layer_2" xmlns="http://www.w3.org/2000/svg" width="1174" height="1174" viewBox="0 0 1174 1174"><path d="m1003.89,1087h-255.83v-417.13h127.91l13.52-167.37h-135.31s-21.69-107,44.31-107h92.03l-6.03-144h-174.73s-154.27,20.4-125.77,242.2l-88.5,2.8v172.75h91.5l-3,417.75H173.6s-86.1-39.67-89.6-103.09,0-795.06,0-795.06c0,0,27.63-97.35,88.06-101.85s831.83,0,831.83,0c0,0,73.61,35.76,80.11,91.13s0,828.77,0,828.77c0,0-30.71,72.61-80.11,80.11Z" style="fill:#f1f1ed; stroke-width:0px;"/></svg>