<?xml version="1.0" encoding="UTF-8"?><svg id="Layer_1" xmlns="http://www.w3.org/2000/svg" width="15.97" height="8.37" xmlns:xlink="http://www.w3.org/1999/xlink" viewBox="0 0 15.97 8.37"><defs><clipPath id="clippath"><rect width="15.97" height="8.37" style="fill:none; stroke-width:0px;"/></clipPath><mask id="mask" x="0" y="0" width="15.97" height="8.37" maskUnits="userSpaceOnUse"><g id="mask0_22_21"><path d="m15.97,0H0v8.37h15.97V0Z" style="fill:#fff; stroke-width:0px;"/></g></mask></defs><g style="clip-path:url(#clippath);"><g style="mask:url(#mask);"><path d="m15.18.06h-1.05c-2.27,0-3.76,1.7-5.12,3.42-1.35,1.71-2.37,3.32-4.4,3.32h0c-.7,0-1.28-.27-1.78-.77-.91-.91-.91-2.79,0-3.7.5-.49,1.07-.77,1.78-.77s1.36.27,1.86.77c.31.31.81.31,1.11,0,.31-.31.31-.8,0-1.11-.79-.79-1.85-1.23-2.97-1.23S2.43.44,1.64,1.23c-1.64,1.63-1.64,4.29,0,5.92.79.79,1.85,1.23,2.97,1.23h.01c2.78,0,4.1-2.08,5.55-3.92,1.23-1.56,2.38-2.82,3.88-2.82h.34v3.31h-2.44c-.41,0-.75.33-.75.74s.33.74.75.74h2.44v1.14c0,.43.35.78.79.78s.79-.35.79-.78V.85c0-.43-.35-.78-.79-.78" style="fill:#0094d6; stroke-width:0px;"/></g></g></svg>