<?xml version="1.0" encoding="UTF-8"?><svg xmlns="http://www.w3.org/2000/svg" width="1010.67" height="1003.33" viewBox="0 0 1010.67 1003.33"><g id="Layer_2"><path d="m246.17,0h527.78s223,50.84,232.5,261.17,0,487.15,0,487.15c0,0-38.99,244.18-254.74,251.68s-491.74,0-491.74,0c0,0-239.01-36.54-253.51-244.02s0-523.48,0-523.48C6.44,232.5,65.39-.5,246.17,0Z" style="fill:#f1f1ed; stroke-width:0px;"/><path d="m337.55,276.41c71.32-48.85,161.23-61.39,244.01-36.49,87.97,26.46,202.35,92.98,202.31,260.08-.04,128.16-64.61,196.49-132.59,232.93-96.91,51.94-215.01,46.8-306.99-13.44-60.49-39.62-116.13-107.02-116.51-220.99-.38-115.21,52.28-182.72,109.76-222.09Z" style="fill:#054674; stroke:#000; stroke-miterlimit:10;"/><path d="m753.85,141.43c22.16-12.86,49.06-14.37,72.98-5.19,23.54,9.03,50.48,28.86,51.77,72.33,1.07,35.83-16.4,55.42-35.57,66.12-29.56,16.5-66.28,14.62-93.42-5.63-15.66-11.69-29.62-30.57-31.06-60.92-1.7-35.98,16.58-55.84,35.3-66.7Z" style="fill:#054674; stroke:#000; stroke-miterlimit:10;"/></g><g id="Layer_1"><circle cx="505.94" cy="499.5" r="212" style="fill:#f1f1ed; stroke:#000; stroke-miterlimit:10;"/><circle cx="796.94" cy="209.5" r="23" style="fill:#f1f1ed; stroke:#000; stroke-miterlimit:10;"/></g></svg>