<?xml version="1.0" encoding="UTF-8"?><svg id="Layer_1" xmlns="http://www.w3.org/2000/svg" width="997.55" height="1000" viewBox="0 0 997.55 1000"><path d="m108.08,0h776.05s113.42,41.91,113.42,113.96v776.83s-36.51,109.21-125.62,109.21-763.86,0-763.86,0c0,0-108.08-69.19-108.08-108.6V112.57S33.48,0,108.08,0Z" style="fill:#f1f1ed; stroke-width:0px;"/><circle cx="271.55" cy="271" r="86.5" style="fill:#054674; stroke-width:0px;"/><path d="m226.05,394.51h36c-2,0,54.73-1.77,63,1.99,5.22,2.37,10,12,10,16.38,0,22.19,6.35,350.23,6.95,386.57.04,2.26-.69,4.46-2.07,6.26-3.19,4.19-9.54,11.29-15.88,11.29h-103.09c-2.81,0-5.49-1.17-7.39-3.24-3.49-3.82-8.52-10.49-8.52-17.17v-374.68c0-.64.06-1.26.18-1.89.94-4.84,5.81-25.52,20.82-25.52Z" style="fill:#054674; stroke-width:0px;"/><path d="m408.34,394.09s107.28-2,114.21-.09,5,44,5,44c0,0,36-56,144-52,97.06,3.59,130.98,95,135,129s3,269,3,269c0,0,.62,31-14,29s-109-2-109-2c0,0-16-6-16-19s-1-224-1-224c0,0,1.11-69.18-70-65-51,3-69,65-69,78s-1,217-1,217c0,0-6.99,15.2-19,16-15,1-98,1-98,1,0,0-14-5-14-19v-382.15s-1.43-19.67,9.79-19.76Z" style="fill:#054674; stroke-width:0px;"/></svg>