<?xml version="1.0" encoding="UTF-8"?><svg id="Layer_1" xmlns="http://www.w3.org/2000/svg" width="979.17" height="946.57" viewBox="0 0 979.17 946.57"><path d="m486.58,516.67c-66.33,0-128.69-25.83-175.6-72.74-46.9-46.9-72.74-109.27-72.74-175.6s25.83-128.69,72.74-175.6c46.9-46.9,109.27-72.73,175.6-72.73s128.69,25.83,175.6,72.73c46.9,46.9,72.74,109.27,72.74,175.6s-25.83,128.69-72.74,175.6c-46.9,46.9-109.27,72.74-175.6,72.74Z" style="fill:#fff; stroke-width:0px;"/><path d="m486.58,40c30.84,0,60.74,6.03,88.87,17.93,27.18,11.5,51.61,27.97,72.59,48.95,20.98,20.98,37.45,45.41,48.95,72.59,11.9,28.12,17.93,58.02,17.93,88.87s-6.03,60.74-17.93,88.87c-11.5,27.18-27.97,51.61-48.95,72.59-20.98,20.98-45.41,37.45-72.59,48.95-28.12,11.9-58.02,17.93-88.87,17.93s-60.74-6.03-88.87-17.93c-27.18-11.5-51.61-27.97-72.59-48.95-20.98-20.98-37.45-45.41-48.95-72.59-11.9-28.12-17.93-58.02-17.93-88.87s6.03-60.74,17.93-88.87c11.5-27.18,27.97-51.61,48.95-72.59,20.98-20.98,45.41-37.45,72.59-48.95,28.12-11.9,58.02-17.93,88.87-17.93m0-40C338.39,0,218.25,120.14,218.25,268.33s120.14,268.33,268.33,268.33,268.33-120.14,268.33-268.33S634.78,0,486.58,0h0Z" style="stroke-width:0px;"/><line x1="30.14" y1="926.57" x2="942.46" y2="926.57" style="fill:none; stroke:#000; stroke-miterlimit:10; stroke-width:40px;"/><path d="m21.35,926.57s26.38-403.4,468.25-407.79c441.87-4.4,468.25,407.79,468.25,407.79H21.35Z" style="fill:none; stroke:#000; stroke-miterlimit:10; stroke-width:40px;"/></svg>