<?xml version="1.0" encoding="UTF-8"?><svg id="Layer_1" xmlns="http://www.w3.org/2000/svg" width="979.07" height="946.6" viewBox="0 0 979.07 946.6"><path d="m486.55,516.7c-66.3,0-128.7-25.8-175.6-72.7s-72.7-109.3-72.7-175.6,25.8-128.8,72.7-175.7c46.9-46.9,109.2-72.7,175.6-72.7s128.7,25.8,175.6,72.7c46.9,46.9,72.7,109.3,72.7,175.6s-25.8,128.7-72.7,175.6c-46.9,46.9-109.3,72.8-175.6,72.8Z" style="fill:none; stroke:#fff; stroke-miterlimit:10; stroke-width:40px;"/><line x1="30.05" y1="926.6" x2="942.45" y2="926.6" style="fill:none; stroke:#fff; stroke-miterlimit:10; stroke-width:40px;"/><path d="m21.35,926.6s26.4-403.4,468.2-407.8c441.9-4.4,468.2,407.8,468.2,407.8H21.35Z" style="fill:none; stroke:#fff; stroke-miterlimit:10; stroke-width:40px;"/></svg>