<?xml version="1.0" encoding="utf-8"?>
<!-- Generator: Adobe Illustrator 28.0.0, SVG Export Plug-In . SVG Version: 6.00 Build 0)  -->
<svg version="1.1" id="Layer_1" xmlns="http://www.w3.org/2000/svg" xmlns:xlink="http://www.w3.org/1999/xlink" x="0px" y="0px"
	 viewBox="0 0 806.3 814.5" style="enable-background:new 0 0 806.3 814.5;" xml:space="preserve">
<style type="text/css">
	.st0{fill:none;}
	.st1{fill:none;stroke:#000000;stroke-width:40;stroke-miterlimit:10;}
</style>
<path class="st0" d="M300.7,581.5c-75,0-145.5-29.2-198.5-82.2c-53-53-82.2-123.5-82.2-198.5s29.2-145.5,82.2-198.5
	c53-53,123.5-82.2,198.5-82.2s145.5,29.2,198.5,82.2c53,53,82.2,123.5,82.2,198.5s-29.2,145.5-82.2,198.5
	C446.2,552.3,375.7,581.5,300.7,581.5L300.7,581.5z"/>
<path d="M300.7,40c35.2,0,69.4,6.9,101.5,20.5c31,13.1,58.9,31.9,82.9,55.9c24,24,42.8,51.8,55.9,82.9
	c13.6,32.1,20.5,66.3,20.5,101.5s-6.9,69.4-20.5,101.5c-13.1,31-31.9,58.9-55.9,82.9s-51.9,42.8-82.9,55.9
	c-32.1,13.6-66.3,20.5-101.5,20.5s-69.4-6.9-101.5-20.5c-31-13.1-58.9-31.9-82.9-55.9c-24-24-42.8-51.9-55.9-82.9
	C46.9,370.1,40,336,40,300.7s6.9-69.4,20.5-101.5c13.1-31,31.9-58.9,55.9-82.9c24-24,51.8-42.8,82.9-55.9
	C231.4,46.9,265.5,40,300.7,40 M300.7,0C134.6,0,0,134.6,0,300.7s134.6,300.7,300.7,300.7s300.7-134.6,300.7-300.7S466.8,0,300.7,0
	L300.7,0z"/>
<line class="st1" x1="509" y1="517.1" x2="792.2" y2="800.3"/>
</svg>
