<?xml version="1.0" encoding="UTF-8"?><svg id="Layer_1" xmlns="http://www.w3.org/2000/svg" width="806.31" height="814.46" viewBox="0 0 806.31 814.46"><path d="m300.73,581.46c-74.99,0-145.48-29.2-198.51-82.22-53.02-53.02-82.22-123.52-82.22-198.51s29.2-145.48,82.22-198.51c53.02-53.02,123.52-82.22,198.51-82.22s145.48,29.2,198.51,82.22c53.02,53.02,82.22,123.52,82.22,198.51s-29.2,145.48-82.22,198.51c-53.02,53.02-123.52,82.22-198.51,82.22Z" style="fill:#fff; stroke-width:0px;"/><path d="m300.73,40c35.22,0,69.36,6.89,101.48,20.47,31.04,13.13,58.93,31.94,82.89,55.89,23.96,23.96,42.76,51.85,55.89,82.89,13.58,32.12,20.47,66.26,20.47,101.48s-6.89,69.36-20.47,101.48c-13.13,31.04-31.94,58.93-55.89,82.89s-51.85,42.76-82.89,55.89c-32.12,13.58-66.26,20.47-101.48,20.47s-69.36-6.89-101.48-20.47c-31.04-13.13-58.93-31.94-82.89-55.89-23.96-23.96-42.76-51.85-55.89-82.89-13.58-32.12-20.47-66.26-20.47-101.48s6.89-69.36,20.47-101.48c13.13-31.04,31.94-58.93,55.89-82.89,23.96-23.96,51.85-42.76,82.89-55.89,32.12-13.58,66.26-20.47,101.48-20.47m0-40C134.64,0,0,134.64,0,300.73s134.64,300.73,300.73,300.73,300.73-134.64,300.73-300.73S466.82,0,300.73,0h0Z" style="stroke-width:0px;"/><line x1="508.96" y1="517.11" x2="792.17" y2="800.32" style="fill:none; stroke:#000; stroke-miterlimit:10; stroke-width:40px;"/></svg>