<?xml version="1.0" encoding="UTF-8"?><svg id="Layer_1" xmlns="http://www.w3.org/2000/svg" width="1000.23" height="1000.22" viewBox="0 0 1000.23 1000.22"><path d="m57.43,0h890.04s52.03,23.54,52.53,62.02,0,879.32,0,879.32c0,0-24.69,58.16-55.6,58.66s-886.98,0-886.98,0c0,0-57.93-29.69-57.43-55.6S0,69.68,0,69.68C0,69.68,10.35,7.5,57.43,0Z" style="fill:#f1f1ed; stroke-width:0px;"/><path d="m459.64,435.11v96.94s-101.56-21.42-106.77,82.75c-5.21,104.17,119.79,83.33,132.81,62.5,13.02-20.83,33.85-10.42,31.25-203.12-2.6-192.71.22-261.28.22-261.28h91.23s12.72,144.09,150.74,149.3v91.41s-151.04-31.51-156.25-80.99,0,243.93,0,243.93c0,0-20.83,170.13-158.85,170.13s-192.71-96.35-187.5-197.92c5.21-101.56,85.94-161.46,203.12-153.65Z" style="fill:#054674; stroke:#000; stroke-miterlimit:10;"/></svg>