<?xml version="1.0" encoding="UTF-8"?><svg id="Layer_1" xmlns="http://www.w3.org/2000/svg" width="1000" height="576.81" viewBox="0 0 1000 576.81"><polygon points="72.73 0 93.01 41.1 138.37 47.7 105.55 79.69 113.3 124.87 72.73 103.54 32.15 124.87 39.9 79.69 7.08 47.7 52.44 41.1 72.73 0" style="fill:#f1f1ed; stroke-width:0px;"/><path d="m180.79,53.3h-22.04v-7.96h53.66v7.96h-22.15v64.52h-9.46V53.3Z" style="fill:#f1f1ed; stroke-width:0px;"/><path d="m215.3,82.01c0-6.13-.11-11.4-.43-16.24h8.28l.32,10.22h.43c2.37-6.99,8.06-11.4,14.41-11.4,1.08,0,1.83.11,2.69.32v8.93c-.97-.22-1.94-.32-3.23-.32-6.67,0-11.4,5.05-12.69,12.15-.22,1.29-.43,2.8-.43,4.41v27.74h-9.35v-35.81Z" style="fill:#f1f1ed; stroke-width:0px;"/><path d="m294.01,103.62c0,5.38.11,10.11.43,14.19h-8.39l-.54-8.49h-.21c-2.47,4.19-7.96,9.68-17.2,9.68-8.17,0-17.96-4.52-17.96-22.8v-30.43h9.46v28.82c0,9.89,3.01,16.56,11.61,16.56,6.34,0,10.75-4.41,12.47-8.6.54-1.4.86-3.12.86-4.84v-31.94h9.46v37.85Z" style="fill:#f1f1ed; stroke-width:0px;"/><path d="m308.42,108.14c2.8,1.83,7.74,3.76,12.47,3.76,6.88,0,10.11-3.44,10.11-7.74,0-4.52-2.69-6.99-9.68-9.57-9.35-3.33-13.76-8.5-13.76-14.73,0-8.39,6.77-15.27,17.96-15.27,5.27,0,9.89,1.51,12.8,3.23l-2.37,6.88c-2.04-1.29-5.81-3.01-10.65-3.01-5.59,0-8.71,3.23-8.71,7.1,0,4.3,3.12,6.24,9.89,8.82,9.03,3.44,13.66,7.96,13.66,15.7,0,9.14-7.1,15.59-19.46,15.59-5.7,0-10.97-1.4-14.62-3.55l2.37-7.2Z" style="fill:#f1f1ed; stroke-width:0px;"/><path d="m363.68,50.83v14.95h13.55v7.2h-13.55v28.06c0,6.45,1.83,10.11,7.1,10.11,2.47,0,4.3-.32,5.48-.65l.43,7.1c-1.83.75-4.73,1.29-8.39,1.29-4.41,0-7.96-1.4-10.22-3.98-2.69-2.8-3.66-7.42-3.66-13.55v-28.39h-8.06v-7.2h8.06v-12.47l9.25-2.47Z" style="fill:#f1f1ed; stroke-width:0px;"/><path d="m387.88,82.76c0-6.67-.21-12.04-.43-16.99h8.49l.43,8.92h.22c3.87-6.34,10-10.11,18.49-10.11,12.58,0,22.04,10.65,22.04,26.45,0,18.71-11.4,27.96-23.66,27.96-6.88,0-12.9-3.01-16.02-8.17h-.21v28.28h-9.35v-56.34Zm9.35,13.87c0,1.4.21,2.69.43,3.87,1.72,6.56,7.42,11.08,14.19,11.08,10,0,15.81-8.17,15.81-20.11,0-10.43-5.48-19.35-15.48-19.35-6.45,0-12.47,4.62-14.3,11.72-.32,1.18-.65,2.58-.65,3.87v8.92Z" style="fill:#f1f1ed; stroke-width:0px;"/><path d="m459.59,51.15c.11,3.23-2.26,5.81-6.02,5.81-3.33,0-5.7-2.58-5.7-5.81s2.47-5.91,5.91-5.91,5.81,2.58,5.81,5.91Zm-10.54,66.67v-52.04h9.46v52.04h-9.46Z" style="fill:#f1f1ed; stroke-width:0px;"/><path d="m474.22,41.47h9.46v76.35h-9.46V41.47Z" style="fill:#f1f1ed; stroke-width:0px;"/><path d="m546.69,91.36c0,19.25-13.33,27.63-25.91,27.63-14.09,0-24.95-10.32-24.95-26.77,0-17.42,11.4-27.63,25.81-27.63s25.05,10.86,25.05,26.77Zm-41.29.54c0,11.4,6.56,20,15.81,20s15.81-8.49,15.81-20.22c0-8.82-4.41-20-15.59-20s-16.02,10.32-16.02,20.22Z" style="fill:#f1f1ed; stroke-width:0px;"/><path d="m570.02,50.83v14.95h13.55v7.2h-13.55v28.06c0,6.45,1.83,10.11,7.1,10.11,2.47,0,4.3-.32,5.48-.65l.43,7.1c-1.83.75-4.73,1.29-8.39,1.29-4.41,0-7.96-1.4-10.21-3.98-2.69-2.8-3.66-7.42-3.66-13.55v-28.39h-8.06v-7.2h8.06v-12.47l9.25-2.47Z" style="fill:#f1f1ed; stroke-width:0px;"/><rect y="178.12" width="186.36" height="186.36" style="fill:#f1f1ed; stroke-width:0px;"/><rect x="204.55" y="178.12" width="186.36" height="186.36" style="fill:#f1f1ed; stroke-width:0px;"/><rect x="404.55" y="178.12" width="186.36" height="186.36" style="fill:#f1f1ed; stroke-width:0px;"/><rect x="613.64" y="178.12" width="186.36" height="186.36" style="fill:#f1f1ed; stroke-width:0px;"/><rect x="813.64" y="178.12" width="186.36" height="186.36" style="fill:#f1f1ed; stroke-width:0px;"/><polygon points="88.2 208.56 108.48 249.67 153.84 256.26 121.02 288.25 128.77 333.43 88.2 312.1 47.62 333.43 55.37 288.25 22.55 256.26 67.91 249.67 88.2 208.56" style="fill:#054674; stroke:#000; stroke-miterlimit:10;"/><polygon points="298.74 208.56 319.03 249.67 364.39 256.26 331.57 288.25 339.32 333.43 298.74 312.1 258.17 333.43 265.92 288.25 233.1 256.26 278.46 249.67 298.74 208.56" style="fill:#054674; stroke:#000; stroke-miterlimit:10;"/><polygon points="499.74 208.56 520.03 249.67 565.39 256.26 532.57 288.25 540.32 333.43 499.74 312.1 459.17 333.43 466.92 288.25 434.1 256.26 479.46 249.67 499.74 208.56" style="fill:#054674; stroke:#000; stroke-miterlimit:10;"/><polygon points="712.38 210.56 732.67 251.67 778.03 258.26 745.2 290.25 752.95 335.43 712.38 314.1 671.81 335.43 679.56 290.25 646.73 258.26 692.09 251.67 712.38 210.56" style="fill:#054674; stroke:#000; stroke-miterlimit:10;"/><polygon points="914.29 208.93 934.57 250.03 979.94 256.62 947.11 288.62 954.86 333.8 914.29 312.47 873.72 333.8 881.46 288.62 848.64 256.62 894 250.03 914.29 208.93" style="fill:#054674; stroke:#000; stroke-miterlimit:10;"/><path d="m21.6,427.31H4.97v-5.85h40.47v5.85h-16.71v47.42h-7.14v-47.42Z" style="fill:#f1f1ed; stroke-width:0px;"/><path d="m47.64,448.41c0-4.5-.08-8.38-.32-11.93h6.25l.24,7.51h.32c1.78-5.14,6.08-8.38,10.87-8.38.81,0,1.38.08,2.03.24v6.56c-.73-.16-1.46-.24-2.43-.24-5.03,0-8.6,3.71-9.57,8.93-.16.95-.32,2.05-.32,3.24v20.39h-7.06v-26.32Z" style="fill:#f1f1ed; stroke-width:0px;"/><path d="m107,464.29c0,3.95.08,7.43.32,10.43h-6.33l-.41-6.24h-.16c-1.87,3.08-6,7.11-12.98,7.11-6.16,0-13.54-3.32-13.54-16.75v-22.36h7.14v21.18c0,7.27,2.27,12.17,8.76,12.17,4.78,0,8.11-3.24,9.41-6.32.41-1.03.65-2.29.65-3.56v-23.47h7.14v27.82Z" style="fill:#f1f1ed; stroke-width:0px;"/><path d="m117.87,467.61c2.11,1.34,5.84,2.77,9.41,2.77,5.19,0,7.62-2.53,7.62-5.69,0-3.32-2.03-5.14-7.3-7.03-7.06-2.45-10.38-6.24-10.38-10.83,0-6.16,5.11-11.22,13.54-11.22,3.97,0,7.46,1.11,9.65,2.37l-1.78,5.06c-1.54-.95-4.38-2.21-8.03-2.21-4.22,0-6.57,2.37-6.57,5.21,0,3.16,2.35,4.58,7.46,6.48,6.81,2.53,10.3,5.85,10.3,11.54,0,6.72-5.35,11.46-14.68,11.46-4.3,0-8.27-1.03-11.03-2.61l1.78-5.29Z" style="fill:#f1f1ed; stroke-width:0px;"/><path d="m159.56,425.49v10.98h10.22v5.29h-10.22v20.62c0,4.74,1.38,7.43,5.35,7.43,1.87,0,3.24-.24,4.14-.47l.32,5.22c-1.38.55-3.57.95-6.33.95-3.33,0-6-1.03-7.7-2.92-2.03-2.05-2.76-5.45-2.76-9.96v-20.86h-6.08v-5.29h6.08v-9.17l6.97-1.82Z" style="fill:#f1f1ed; stroke-width:0px;"/><path d="m177.08,466.34c3.16,1.9,7.79,3.48,12.65,3.48,7.22,0,11.44-3.71,11.44-9.09,0-4.98-2.92-7.82-10.3-10.59-8.92-3.08-14.44-7.59-14.44-15.09,0-8.3,7.06-14.46,17.68-14.46,5.6,0,9.65,1.26,12.08,2.61l-1.95,5.61c-1.78-.95-5.43-2.53-10.38-2.53-7.46,0-10.3,4.35-10.3,7.98,0,4.98,3.33,7.43,10.87,10.27,9.25,3.48,13.95,7.82,13.95,15.65,0,8.22-6.24,15.33-19.14,15.33-5.27,0-11.03-1.5-13.95-3.4l1.78-5.77Z" style="fill:#f1f1ed; stroke-width:0px;"/><path d="m246.26,473.3c-1.87.95-6,2.21-11.27,2.21-11.84,0-19.54-7.82-19.54-19.52s8.27-20.31,21.09-20.31c4.22,0,7.95,1.03,9.89,1.98l-1.62,5.37c-1.7-.95-4.38-1.82-8.27-1.82-9,0-13.87,6.48-13.87,14.46,0,8.85,5.84,14.3,13.62,14.3,4.05,0,6.73-1.03,8.76-1.9l1.22,5.21Z" style="fill:#f1f1ed; stroke-width:0px;"/><path d="m289.66,455.28c0,14.15-10.06,20.31-19.55,20.31-10.62,0-18.81-7.59-18.81-19.68,0-12.8,8.6-20.31,19.46-20.31s18.9,7.98,18.9,19.68Zm-31.14.4c0,8.38,4.95,14.7,11.92,14.7s11.92-6.24,11.92-14.86c0-6.48-3.32-14.7-11.76-14.7s-12.08,7.59-12.08,14.86Z" style="fill:#f1f1ed; stroke-width:0px;"/><path d="m298.66,448.41c0-4.5-.08-8.38-.32-11.93h6.25l.24,7.51h.32c1.78-5.14,6.08-8.38,10.87-8.38.81,0,1.38.08,2.03.24v6.56c-.73-.16-1.46-.24-2.43-.24-5.03,0-8.6,3.71-9.57,8.93-.16.95-.32,2.05-.32,3.24v20.39h-7.06v-26.32Z" style="fill:#f1f1ed; stroke-width:0px;"/><path d="m328.35,456.86c.16,9.4,6.33,13.28,13.46,13.28,5.11,0,8.19-.87,10.87-1.98l1.22,4.98c-2.51,1.11-6.81,2.37-13.06,2.37-12.08,0-19.3-7.74-19.3-19.28s6.97-20.62,18.41-20.62c12.81,0,16.22,10.98,16.22,18.02,0,1.42-.16,2.53-.24,3.24h-27.57Zm20.92-4.98c.08-4.43-1.87-11.3-9.89-11.3-7.22,0-10.38,6.48-10.95,11.3h20.84Z" style="fill:#f1f1ed; stroke-width:0px;"/><path d="m401.99,474.72v-13.99h-24.49v-4.58l23.52-32.79h7.7v31.93h7.38v5.45h-7.38v13.99h-6.73Zm0-19.44v-17.15c0-2.69.08-5.37.24-8.06h-.24c-1.62,3-2.92,5.22-4.38,7.59l-12.9,17.46v.16h17.27Z" style="fill:#f1f1ed; stroke-width:0px;"/><path d="m422.11,470.61c0-2.92,2.03-4.98,4.87-4.98s4.78,2.05,4.78,4.98-1.87,4.98-4.87,4.98c-2.84,0-4.78-2.13-4.78-4.98Z" style="fill:#f1f1ed; stroke-width:0px;"/><path d="m442.46,469.82c1.54.16,3.33,0,5.76-.24,4.14-.55,8.03-2.21,11.03-4.98,3.49-3.08,6-7.59,6.97-13.67h-.24c-2.92,3.48-7.14,5.53-12.41,5.53-9.49,0-15.57-6.95-15.57-15.73,0-9.72,7.22-18.25,18-18.25s17.44,8.53,17.44,21.65c0,11.3-3.89,19.2-9.08,24.1-4.05,3.87-9.65,6.24-15.33,6.88-2.6.39-4.87.47-6.57.39v-5.69Zm2.6-29.56c0,6.4,3.97,10.91,10.14,10.91,4.78,0,8.52-2.29,10.38-5.37.41-.63.65-1.42.65-2.53,0-8.77-3.32-15.49-10.79-15.49-6.08,0-10.38,5.22-10.38,12.49Z" style="fill:#f1f1ed; stroke-width:0px;"/><path d="m24.24,513.9h-.15l-8.69,4.69-1.31-5.15,10.92-5.85h5.77v49.99h-6.54v-43.68Z" style="fill:#f1f1ed; stroke-width:0px;"/><path d="m49.54,553.58c0-2.85,1.92-4.84,4.61-4.84s4.54,2,4.54,4.84-1.77,4.84-4.61,4.84c-2.69,0-4.54-2.08-4.54-4.84Z" style="fill:#f1f1ed; stroke-width:0px;"/><path d="m64.92,557.58v-4.15l5.31-5.15c12.77-12.15,18.53-18.61,18.61-26.15,0-5.08-2.46-9.77-9.92-9.77-4.54,0-8.31,2.31-10.61,4.23l-2.15-4.77c3.46-2.92,8.38-5.08,14.15-5.08,10.77,0,15.3,7.38,15.3,14.54,0,9.23-6.69,16.69-17.23,26.84l-4,3.69v.15h22.46v5.61h-31.92Z" style="fill:#f1f1ed; stroke-width:0px;"/><path d="m137.6,532.05c0,17-6.31,26.38-17.38,26.38-9.77,0-16.38-9.15-16.53-25.69,0-16.77,7.23-25.99,17.38-25.99s16.53,9.38,16.53,25.3Zm-27.15.77c0,13,4,20.38,10.15,20.38,6.92,0,10.23-8.08,10.23-20.84s-3.15-20.38-10.15-20.38c-5.92,0-10.23,7.23-10.23,20.84Z" style="fill:#f1f1ed; stroke-width:0px;"/><path d="m143.22,544.89c0-6.31,3.77-10.77,9.92-13.38l-.08-.23c-5.54-2.62-7.92-6.92-7.92-11.23,0-7.92,6.69-13.3,15.46-13.3,9.69,0,14.54,6.08,14.54,12.3,0,4.23-2.08,8.77-8.23,11.69v.23c6.23,2.46,10.07,6.84,10.07,12.92,0,8.69-7.46,14.54-17,14.54-10.46,0-16.76-6.23-16.76-13.54Zm26.92-.31c0-6.08-4.23-9-11-10.92-5.84,1.69-9,5.54-9,10.3-.23,5.08,3.61,9.54,10,9.54s10-3.77,10-8.92Zm-18.61-24.99c0,5,3.77,7.69,9.54,9.23,4.31-1.46,7.61-4.54,7.61-9.08,0-4-2.38-8.15-8.46-8.15-5.61,0-8.69,3.69-8.69,8Z" style="fill:#f1f1ed; stroke-width:0px;"/><path d="m222.35,557.58l-.54-4.69h-.23c-2.08,2.92-6.08,5.54-11.38,5.54-7.54,0-11.38-5.31-11.38-10.69,0-9,8-13.92,22.38-13.84v-.77c0-3.08-.85-8.61-8.46-8.61-3.46,0-7.08,1.08-9.69,2.77l-1.54-4.46c3.08-2,7.54-3.31,12.23-3.31,11.38,0,14.15,7.77,14.15,15.23v13.92c0,3.23.15,6.38.62,8.92h-6.15Zm-1-19c-7.38-.15-15.77,1.15-15.77,8.38,0,4.38,2.92,6.46,6.38,6.46,4.85,0,7.92-3.08,9-6.23.23-.69.38-1.46.38-2.15v-6.46Z" style="fill:#f1f1ed; stroke-width:0px;"/><path d="m238.81,530.44c0-3.84-.08-7-.31-10.07h6l.38,6.15h.15c1.85-3.54,6.15-7,12.3-7,5.15,0,13.15,3.08,13.15,15.84v22.23h-6.77v-21.46c0-6-2.23-11-8.61-11-4.46,0-7.92,3.15-9.08,6.92-.31.85-.46,2-.46,3.15v22.38h-6.77v-27.15Z" style="fill:#f1f1ed; stroke-width:0px;"/><path d="m281.5,530.44c0-3.84-.08-7-.31-10.07h5.92l.31,6h.23c2.08-3.54,5.54-6.84,11.69-6.84,5.08,0,8.92,3.08,10.54,7.46h.15c1.15-2.08,2.61-3.69,4.15-4.85,2.23-1.69,4.69-2.61,8.23-2.61,4.92,0,12.23,3.23,12.23,16.15v21.92h-6.61v-21.07c0-7.15-2.61-11.46-8.08-11.46-3.84,0-6.84,2.84-8,6.15-.31.92-.54,2.15-.54,3.38v22.99h-6.61v-22.3c0-5.92-2.61-10.23-7.77-10.23-4.23,0-7.31,3.38-8.38,6.77-.38,1-.54,2.15-.54,3.31v22.46h-6.61v-27.15Z" style="fill:#f1f1ed; stroke-width:0px;"/><path d="m349.41,540.2c.15,9.15,6,12.92,12.77,12.92,4.84,0,7.77-.85,10.31-1.92l1.15,4.84c-2.38,1.08-6.46,2.31-12.38,2.31-11.46,0-18.3-7.54-18.3-18.77s6.61-20.07,17.46-20.07c12.15,0,15.38,10.69,15.38,17.53,0,1.38-.15,2.46-.23,3.15h-26.15Zm19.84-4.84c.08-4.31-1.77-11-9.38-11-6.84,0-9.84,6.31-10.38,11h19.76Z" style="fill:#f1f1ed; stroke-width:0px;"/><path d="m384.17,502.98h6.77v54.6h-6.77v-54.6Z" style="fill:#f1f1ed; stroke-width:0px;"/><path d="m434.47,502.98v44.99c0,3.31.08,7.08.31,9.61h-6.08l-.31-6.46h-.15c-2.08,4.15-6.61,7.31-12.69,7.31-9,0-15.92-7.61-15.92-18.92-.08-12.38,7.61-20,16.69-20,5.69,0,9.54,2.69,11.23,5.69h.15v-22.22h6.77Zm-6.77,32.53c0-.85-.08-2-.31-2.85-1-4.31-4.69-7.84-9.77-7.84-7,0-11.15,6.15-11.15,14.38,0,7.54,3.69,13.77,11,13.77,4.54,0,8.69-3,9.92-8.08.23-.92.31-1.85.31-2.92v-6.46Z" style="fill:#f1f1ed; stroke-width:0px;"/><path d="m449.47,540.2c.15,9.15,6,12.92,12.77,12.92,4.85,0,7.77-.85,10.31-1.92l1.15,4.84c-2.38,1.08-6.46,2.31-12.38,2.31-11.46,0-18.3-7.54-18.3-18.77s6.61-20.07,17.46-20.07c12.15,0,15.38,10.69,15.38,17.53,0,1.38-.15,2.46-.23,3.15h-26.15Zm19.84-4.84c.08-4.31-1.77-11-9.38-11-6.84,0-9.84,6.31-10.38,11h19.76Z" style="fill:#f1f1ed; stroke-width:0px;"/><path d="m484.23,502.98h6.77v54.6h-6.77v-54.6Z" style="fill:#f1f1ed; stroke-width:0px;"/><path d="m501.46,550.66c2,1.31,5.54,2.69,8.92,2.69,4.92,0,7.23-2.46,7.23-5.54,0-3.23-1.92-5-6.92-6.84-6.69-2.38-9.84-6.08-9.84-10.54,0-6,4.85-10.92,12.84-10.92,3.77,0,7.07,1.08,9.15,2.31l-1.69,4.92c-1.46-.92-4.15-2.15-7.61-2.15-4,0-6.23,2.31-6.23,5.08,0,3.08,2.23,4.46,7.08,6.31,6.46,2.46,9.77,5.69,9.77,11.23,0,6.54-5.08,11.15-13.92,11.15-4.08,0-7.84-1-10.46-2.54l1.69-5.15Z" style="fill:#f1f1ed; stroke-width:0px;"/><path d="m536.61,540.2c.15,9.15,6,12.92,12.77,12.92,4.84,0,7.77-.85,10.3-1.92l1.15,4.84c-2.38,1.08-6.46,2.31-12.38,2.31-11.46,0-18.3-7.54-18.3-18.77s6.61-20.07,17.46-20.07c12.15,0,15.38,10.69,15.38,17.53,0,1.38-.15,2.46-.23,3.15h-26.15Zm19.84-4.84c.08-4.31-1.77-11-9.38-11-6.84,0-9.84,6.31-10.38,11h19.76Z" style="fill:#f1f1ed; stroke-width:0px;"/><path d="m571.37,531.97c0-4.38-.08-8.15-.31-11.61h5.92l.23,7.31h.31c1.69-5,5.77-8.15,10.3-8.15.77,0,1.31.08,1.92.23v6.38c-.69-.15-1.38-.23-2.31-.23-4.77,0-8.15,3.61-9.08,8.69-.15.92-.31,2-.31,3.15v19.84h-6.69v-25.61Z" style="fill:#f1f1ed; stroke-width:0px;"/></svg>